<svg version="1.2" baseProfile="tiny-ps" xmlns="http://www.w3.org/2000/svg" viewBox="0 0 160 26" width="160" height="26">
	<title>logo-svg</title>
	<style>
		tspan { white-space:pre }
		.shp0 { fill: none;stroke: #333333;stroke-width: 4.38 } 
	</style>
	<path id="macabeus" fill="#333333" aria-label="macabeus"  d="M0.61 25L0.61 11.82Q0.61 10.73 0.41 9.19L2.81 8.87L3.17 10.89Q4.03 10.25 4.86 9.77Q5.69 9.29 6.65 8.94Q7.61 8.58 8.61 8.58Q10.21 8.58 11.13 9.16Q12.06 9.7 12.51 11.05Q13.82 10.12 15.23 9.35Q16.67 8.58 18.21 8.58Q19.39 8.58 20.22 8.9Q21.05 9.19 21.57 9.9Q22.08 10.6 22.3 11.75Q22.53 12.9 22.53 14.63L22.53 25L19.97 25L19.97 14.92Q19.97 13.96 19.93 13.22Q19.9 12.46 19.71 11.94Q19.52 11.4 19.07 11.11Q18.65 10.82 17.85 10.82Q17.12 10.82 16.45 11.05Q15.81 11.24 15.1 11.62Q14.4 12.01 12.93 13.19L12.93 25L10.37 25L10.37 14.92Q10.37 13.96 10.33 13.22Q10.3 12.46 10.11 11.94Q9.92 11.4 9.47 11.11Q9.05 10.82 8.25 10.82Q7.42 10.82 6.53 11.18Q5.63 11.53 4.83 12.01Q4.03 12.49 3.17 13.13L3.17 25L0.61 25ZM36 21.26L36 17.61Q35.36 17.64 34.78 17.67Q34.21 17.7 33.63 17.77Q33.09 17.8 32.64 17.86Q30.33 18.15 29.37 18.89Q28.41 19.59 28.41 20.94Q28.41 22.06 29.09 22.63Q29.79 23.18 30.91 23.18Q32.45 23.18 33.63 22.66Q34.85 22.12 36 21.26ZM36.29 25.26L35.97 23.5Q34.46 24.36 33.15 24.9Q31.87 25.42 30.37 25.42Q28.22 25.42 26.94 24.39Q25.69 23.34 25.69 20.94Q25.69 19.69 26.33 18.76Q26.97 17.83 28 17.22Q29.05 16.58 30.37 16.23Q31.68 15.88 33.05 15.78Q33.63 15.72 34.56 15.69Q35.49 15.62 36 15.59Q36 14.47 35.93 13.61Q35.87 12.71 35.55 12.1Q35.23 11.46 34.59 11.14Q33.98 10.82 32.83 10.82Q31.9 10.82 31.04 10.95Q30.17 11.05 29.5 11.18Q28.7 11.34 28.03 11.53L27.52 9.32Q28.32 9.13 29.25 8.97Q30.05 8.81 31.1 8.71Q32.16 8.58 33.37 8.58Q35.01 8.58 36 9.06Q37.02 9.54 37.57 10.38Q38.14 11.18 38.33 12.23Q38.56 13.26 38.56 14.41L38.56 22.09Q38.56 22.54 38.56 23.05Q38.59 23.53 38.62 24.01Q38.69 24.49 38.75 25L36.29 25.26ZM53.57 9.1L53.05 11.24Q52.51 11.11 51.55 10.98Q50.59 10.82 49.6 10.82Q48.16 10.82 47.23 11.4Q46.33 11.98 45.82 12.9Q45.31 13.8 45.12 14.92Q44.93 16.01 44.93 17.06Q44.93 18.7 45.34 19.88Q45.76 21.03 46.43 21.77Q47.13 22.5 48.03 22.86Q48.93 23.18 49.92 23.18Q50.59 23.18 51.2 23.11Q51.84 23.02 52.35 22.92Q52.89 22.79 53.37 22.63L53.89 24.78Q53.21 24.97 52.64 25.1Q52.06 25.22 51.26 25.32Q50.49 25.42 49.6 25.42Q47.84 25.42 46.46 24.97Q45.09 24.52 44.13 23.53Q43.2 22.54 42.69 20.94Q42.21 19.34 42.21 17.03Q42.21 14.79 42.81 13.19Q43.45 11.56 44.48 10.57Q45.5 9.54 46.81 9.06Q48.16 8.58 49.6 8.58Q50.37 8.58 51.07 8.68Q51.81 8.74 52.35 8.84Q52.99 8.97 53.57 9.1ZM65.89 21.26L65.89 17.61Q65.25 17.64 64.67 17.67Q64.09 17.7 63.52 17.77Q62.97 17.8 62.53 17.86Q60.22 18.15 59.26 18.89Q58.3 19.59 58.3 20.94Q58.3 22.06 58.97 22.63Q59.68 23.18 60.8 23.18Q62.33 23.18 63.52 22.66Q64.73 22.12 65.89 21.26ZM66.17 25.26L65.85 23.5Q64.35 24.36 63.04 24.9Q61.76 25.42 60.25 25.42Q58.11 25.42 56.83 24.39Q55.58 23.34 55.58 20.94Q55.58 19.69 56.22 18.76Q56.86 17.83 57.89 17.22Q58.94 16.58 60.25 16.23Q61.57 15.88 62.94 15.78Q63.52 15.72 64.45 15.69Q65.37 15.62 65.89 15.59Q65.89 14.47 65.82 13.61Q65.76 12.71 65.44 12.1Q65.12 11.46 64.48 11.14Q63.87 10.82 62.72 10.82Q61.79 10.82 60.93 10.95Q60.06 11.05 59.39 11.18Q58.59 11.34 57.92 11.53L57.41 9.32Q58.21 9.13 59.13 8.97Q59.93 8.81 60.99 8.71Q62.05 8.58 63.26 8.58Q64.89 8.58 65.89 9.06Q66.91 9.54 67.45 10.38Q68.03 11.18 68.22 12.23Q68.45 13.26 68.45 14.41L68.45 22.09Q68.45 22.54 68.45 23.05Q68.48 23.53 68.51 24.01Q68.57 24.49 68.64 25L66.17 25.26ZM72.93 24.04L72.93 1.03L75.49 0.74L75.49 10.28Q76.19 9.8 76.96 9.45Q77.6 9.13 78.4 8.87Q79.2 8.58 80 8.58Q81.31 8.58 82.46 9.1Q83.65 9.61 84.51 10.63Q85.41 11.66 85.92 13.22Q86.43 14.79 86.43 16.94Q86.43 19.3 85.76 20.94Q85.12 22.54 84 23.53Q82.91 24.52 81.5 24.97Q80.09 25.42 78.62 25.42Q77.15 25.42 76.06 25.22Q75.01 25 74.3 24.74Q73.47 24.42 72.93 24.04ZM75.49 12.58L75.49 22.63Q75.9 22.79 76.38 22.92Q76.86 23.02 77.41 23.11Q77.98 23.18 78.62 23.18Q80.09 23.18 81.09 22.76Q82.08 22.34 82.65 21.54Q83.23 20.74 83.45 19.62Q83.71 18.47 83.71 17.06Q83.71 15.94 83.45 14.82Q83.23 13.7 82.72 12.84Q82.21 11.94 81.44 11.4Q80.7 10.82 79.71 10.82Q79.04 10.82 78.3 11.11Q77.57 11.37 76.93 11.72Q76.19 12.1 75.49 12.58ZM101.6 22.47L102.08 24.62Q101.34 24.84 100.54 25Q99.77 25.16 98.81 25.29Q97.89 25.42 96.86 25.42Q95.26 25.42 93.89 24.97Q92.51 24.52 91.49 23.53Q90.46 22.54 89.85 20.97Q89.28 19.37 89.28 17.06Q89.28 14.98 89.85 13.42Q90.43 11.82 91.42 10.76Q92.45 9.67 93.79 9.13Q95.17 8.58 96.77 8.58Q98.33 8.58 99.49 9.19Q100.64 9.8 101.37 10.86Q102.14 11.88 102.49 13.29Q102.88 14.66 102.88 16.2L102.4 17.61L92.06 17.61Q92.06 18.6 92.32 19.59Q92.57 20.58 93.18 21.38Q93.82 22.18 94.81 22.7Q95.84 23.18 97.34 23.18Q98.3 23.18 99.1 23.08Q99.9 22.95 100.48 22.82Q101.09 22.66 101.6 22.47ZM92.16 15.56L100.22 15.56Q100.22 15.34 100.13 14.57Q100.03 13.8 99.68 12.97Q99.33 12.14 98.59 11.5Q97.85 10.82 96.64 10.82Q95.29 10.82 94.43 11.4Q93.57 11.94 93.05 12.71Q92.54 13.48 92.35 14.28Q92.16 15.08 92.16 15.56ZM116.19 25.26L116 23.24L115.93 23.24Q115.65 23.46 115.1 23.85Q114.56 24.2 113.85 24.55Q113.15 24.9 112.29 25.16Q111.45 25.42 110.59 25.42Q109.41 25.42 108.57 25.13Q107.74 24.81 107.23 24.1Q106.72 23.4 106.49 22.25Q106.27 21.1 106.27 19.37L106.27 8.9L108.83 8.9L108.83 18.98Q108.83 19.94 108.86 20.71Q108.89 21.48 109.09 22.02Q109.28 22.57 109.69 22.89Q110.14 23.18 110.94 23.18Q111.77 23.18 112.67 22.82Q113.57 22.47 114.3 22.02Q115.17 21.51 116 20.87L116 8.9L118.56 8.9L118.56 22.92Q118.59 24.07 118.72 25L116.19 25.26ZM132.35 9.26L131.9 11.53Q130.56 11.11 129.5 10.98Q128.48 10.82 127.61 10.82Q126.49 10.82 125.73 11.37Q124.99 11.91 124.99 12.78Q125.02 13.54 125.66 14.09Q126.3 14.63 127.13 15.08Q128 15.5 129.02 16.01Q130.08 16.52 130.97 17.16Q131.9 17.8 132.48 18.7Q133.05 19.59 133.09 20.84Q133.05 22.18 132.48 23.08Q131.93 23.94 131.04 24.49Q130.17 25 129.15 25.22Q128.13 25.42 127.23 25.42Q126.08 25.42 124.83 25.29Q123.61 25.16 122.21 24.74L122.69 22.44Q124.13 22.82 125.31 23.02Q126.49 23.18 127.26 23.18Q127.84 23.18 128.38 23.05Q128.96 22.92 129.41 22.7Q129.85 22.44 130.11 22.06Q130.4 21.67 130.4 21.19Q130.37 20.3 129.79 19.69Q129.21 19.05 128.29 18.57Q127.39 18.06 126.33 17.58Q125.31 17.06 124.38 16.42Q123.49 15.75 122.88 14.86Q122.27 13.93 122.27 12.58Q122.27 11.62 122.75 10.89Q123.26 10.12 124.03 9.64Q124.83 9.13 125.76 8.87Q126.72 8.58 127.61 8.58Q128.54 8.58 129.69 8.74Q130.85 8.87 132.35 9.26Z" />
	<path id="Shape 1" class="shp0" d="M139 23L147 23L147 23L139 23L139 23Z" />
</svg>